<mxfile host="Electron" modified="2024-07-14T22:13:34.377Z" agent="Mozilla/5.0 (Windows NT 10.0; Win64; x64) AppleWebKit/537.36 (KHTML, like Gecko) draw.io/24.6.4 Chrome/124.0.6367.207 Electron/30.0.6 Safari/537.36" etag="7H2dcl9xtqhTBqSlNxGG" version="24.6.4" type="device">
  <diagram name="Page-1" id="2YBvvXClWsGukQMizWep">
    <mxGraphModel dx="1886" dy="654" grid="1" gridSize="10" guides="1" tooltips="1" connect="1" arrows="1" fold="1" page="1" pageScale="1" pageWidth="850" pageHeight="1100" math="0" shadow="0">
      <root>
        <mxCell id="0" />
        <mxCell id="1" parent="0" />
        <mxCell id="NXzkBoPEYidwujZH7Roe-2" value="" style="group" vertex="1" connectable="0" parent="1">
          <mxGeometry x="-599" y="43" width="18" height="474" as="geometry" />
        </mxCell>
        <mxCell id="NXzkBoPEYidwujZH7Roe-3" value="" style="endArrow=none;dashed=1;html=1;rounded=0;" edge="1" parent="NXzkBoPEYidwujZH7Roe-2">
          <mxGeometry width="50" height="50" relative="1" as="geometry">
            <mxPoint x="9" y="667" as="sourcePoint" />
            <mxPoint x="9" y="65" as="targetPoint" />
          </mxGeometry>
        </mxCell>
        <mxCell id="NXzkBoPEYidwujZH7Roe-4" value="User" style="shape=umlActor;verticalLabelPosition=bottom;verticalAlign=top;html=1;outlineConnect=0;" vertex="1" parent="NXzkBoPEYidwujZH7Roe-2">
          <mxGeometry width="18" height="39" as="geometry" />
        </mxCell>
        <mxCell id="niMMZWb-5YMJ8XlI0gKg-54" value="CommentController" style="shape=umlLifeline;perimeter=lifelinePerimeter;whiteSpace=wrap;html=1;container=0;dropTarget=0;collapsible=0;recursiveResize=0;outlineConnect=0;portConstraint=eastwest;newEdgeStyle={&quot;edgeStyle&quot;:&quot;elbowEdgeStyle&quot;,&quot;elbow&quot;:&quot;vertical&quot;,&quot;curved&quot;:0,&quot;rounded&quot;:0};fontStyle=4" parent="1" vertex="1">
          <mxGeometry x="-80" y="49" width="120" height="688" as="geometry" />
        </mxCell>
        <mxCell id="niMMZWb-5YMJ8XlI0gKg-55" value="" style="html=1;points=[];perimeter=orthogonalPerimeter;outlineConnect=0;targetShapes=umlLifeline;portConstraint=eastwest;newEdgeStyle={&quot;edgeStyle&quot;:&quot;elbowEdgeStyle&quot;,&quot;elbow&quot;:&quot;vertical&quot;,&quot;curved&quot;:0,&quot;rounded&quot;:0};fontStyle=4" parent="niMMZWb-5YMJ8XlI0gKg-54" vertex="1">
          <mxGeometry x="55" y="74" width="10" height="436" as="geometry" />
        </mxCell>
        <mxCell id="niMMZWb-5YMJ8XlI0gKg-56" value="Router" style="shape=umlLifeline;perimeter=lifelinePerimeter;whiteSpace=wrap;html=1;container=0;dropTarget=0;collapsible=0;recursiveResize=0;outlineConnect=0;portConstraint=eastwest;newEdgeStyle={&quot;edgeStyle&quot;:&quot;elbowEdgeStyle&quot;,&quot;elbow&quot;:&quot;vertical&quot;,&quot;curved&quot;:0,&quot;rounded&quot;:0};fontStyle=4;size=40;" parent="1" vertex="1">
          <mxGeometry x="-296" y="50" width="120" height="642" as="geometry" />
        </mxCell>
        <mxCell id="niMMZWb-5YMJ8XlI0gKg-57" value="" style="html=1;points=[];perimeter=orthogonalPerimeter;outlineConnect=0;targetShapes=umlLifeline;portConstraint=eastwest;newEdgeStyle={&quot;edgeStyle&quot;:&quot;elbowEdgeStyle&quot;,&quot;elbow&quot;:&quot;vertical&quot;,&quot;curved&quot;:0,&quot;rounded&quot;:0};fontStyle=4" parent="niMMZWb-5YMJ8XlI0gKg-56" vertex="1">
          <mxGeometry x="55" y="73" width="10" height="437" as="geometry" />
        </mxCell>
        <mxCell id="niMMZWb-5YMJ8XlI0gKg-58" value="DB" style="shape=umlLifeline;perimeter=lifelinePerimeter;whiteSpace=wrap;html=1;container=0;dropTarget=0;collapsible=0;recursiveResize=0;outlineConnect=0;portConstraint=eastwest;newEdgeStyle={&quot;edgeStyle&quot;:&quot;elbowEdgeStyle&quot;,&quot;elbow&quot;:&quot;vertical&quot;,&quot;curved&quot;:0,&quot;rounded&quot;:0};fontStyle=4" parent="1" vertex="1">
          <mxGeometry x="136" y="50" width="120" height="688" as="geometry" />
        </mxCell>
        <mxCell id="niMMZWb-5YMJ8XlI0gKg-59" value="" style="html=1;points=[];perimeter=orthogonalPerimeter;outlineConnect=0;targetShapes=umlLifeline;portConstraint=eastwest;newEdgeStyle={&quot;edgeStyle&quot;:&quot;elbowEdgeStyle&quot;,&quot;elbow&quot;:&quot;vertical&quot;,&quot;curved&quot;:0,&quot;rounded&quot;:0};fontStyle=4" parent="niMMZWb-5YMJ8XlI0gKg-58" vertex="1">
          <mxGeometry x="55" y="74" width="10" height="436" as="geometry" />
        </mxCell>
        <mxCell id="niMMZWb-5YMJ8XlI0gKg-44" value="React App" style="shape=umlLifeline;perimeter=lifelinePerimeter;whiteSpace=wrap;html=1;container=0;dropTarget=0;collapsible=0;recursiveResize=0;outlineConnect=0;portConstraint=eastwest;newEdgeStyle={&quot;edgeStyle&quot;:&quot;elbowEdgeStyle&quot;,&quot;elbow&quot;:&quot;vertical&quot;,&quot;curved&quot;:0,&quot;rounded&quot;:0};fontStyle=4;size=40;" parent="1" vertex="1">
          <mxGeometry x="-464" y="52" width="100" height="666" as="geometry" />
        </mxCell>
        <mxCell id="niMMZWb-5YMJ8XlI0gKg-46" value="&lt;span style=&quot;color: rgba(0, 0, 0, 0); font-family: monospace; font-size: 0px; text-align: start;&quot;&gt;%3CmxGraphModel%3E%3Croot%3E%3CmxCell%20id%3D%220%22%2F%3E%3CmxCell%20id%3D%221%22%20parent%3D%220%22%2F%3E%3CmxCell%20id%3D%222%22%20value%3D%22%22%20style%3D%22html%3D1%3Bpoints%3D%5B%5D%3Bperimeter%3DorthogonalPerimeter%3BoutlineConnect%3D0%3BtargetShapes%3DumlLifeline%3BportConstraint%3Deastwest%3BnewEdgeStyle%3D%7B%26quot%3BedgeStyle%26quot%3B%3A%26quot%3BelbowEdgeStyle%26quot%3B%2C%26quot%3Belbow%26quot%3B%3A%26quot%3Bvertical%26quot%3B%2C%26quot%3Bcurved%26quot%3B%3A0%2C%26quot%3Brounded%26quot%3B%3A0%7D%3BfontStyle%3D4%3Bcontainer%3D0%3B%22%20vertex%3D%221%22%20parent%3D%221%22%3E%3CmxGeometry%20x%3D%22-419%22%20y%3D%22123%22%20width%3D%2210%22%20height%3D%22356%22%20as%3D%22geometry%22%2F%3E%3C%2FmxCell%3E%3CmxCell%20id%3D%223%22%20value%3D%22%22%20style%3D%22html%3D1%3BverticalAlign%3Dbottom%3BendArrow%3Dblock%3Bdashed%3D1%3BendSize%3D8%3BedgeStyle%3DelbowEdgeStyle%3Belbow%3Dvertical%3Bcurved%3D0%3Brounded%3D0%3BendFill%3D1%3BfontStyle%3D4%3B%22%20edge%3D%221%22%20target%3D%222%22%20parent%3D%221%22%3E%3CmxGeometry%20x%3D%22-0.0945%22%20relative%3D%221%22%20as%3D%22geometry%22%3E%3CmxPoint%20x%3D%22-445%22%20y%3D%22254.26999999999998%22%20as%3D%22targetPoint%22%2F%3E%3CArray%20as%3D%22points%22%2F%3E%3CmxPoint%20x%3D%22-240%22%20y%3D%22254%22%20as%3D%22sourcePoint%22%2F%3E%3CmxPoint%20as%3D%22offset%22%2F%3E%3C%2FmxGeometry%3E%3C%2FmxCell%3E%3C%2Froot%3E%3C%2FmxGraphModel%3E&lt;/span&gt;" style="html=1;points=[];perimeter=orthogonalPerimeter;outlineConnect=0;targetShapes=umlLifeline;portConstraint=eastwest;newEdgeStyle={&quot;edgeStyle&quot;:&quot;elbowEdgeStyle&quot;,&quot;elbow&quot;:&quot;vertical&quot;,&quot;curved&quot;:0,&quot;rounded&quot;:0};fontStyle=4;container=0;" parent="1" vertex="1">
          <mxGeometry x="-419" y="126" width="10" height="356" as="geometry" />
        </mxCell>
        <mxCell id="niMMZWb-5YMJ8XlI0gKg-47" value="" style="html=1;verticalAlign=bottom;endArrow=block;edgeStyle=elbowEdgeStyle;elbow=horizontal;curved=0;rounded=0;fontStyle=4" parent="1" edge="1">
          <mxGeometry relative="1" as="geometry">
            <mxPoint x="-584" y="131" as="sourcePoint" />
            <Array as="points">
              <mxPoint x="-471.5" y="131" />
            </Array>
            <mxPoint x="-419" y="131" as="targetPoint" />
            <mxPoint as="offset" />
          </mxGeometry>
        </mxCell>
        <mxCell id="niMMZWb-5YMJ8XlI0gKg-61" value="" style="html=1;points=[];perimeter=orthogonalPerimeter;outlineConnect=0;targetShapes=umlLifeline;portConstraint=eastwest;newEdgeStyle={&quot;edgeStyle&quot;:&quot;elbowEdgeStyle&quot;,&quot;elbow&quot;:&quot;vertical&quot;,&quot;curved&quot;:0,&quot;rounded&quot;:0};fontStyle=4;container=0;" parent="1" vertex="1">
          <mxGeometry x="-595" y="125" width="10" height="435" as="geometry" />
        </mxCell>
        <mxCell id="niMMZWb-5YMJ8XlI0gKg-63" value="&lt;span style=&quot;color: rgb(0, 0, 0); font-family: Helvetica; font-size: 10px; font-style: normal; font-variant-ligatures: normal; font-variant-caps: normal; font-weight: 400; letter-spacing: normal; orphans: 2; text-align: center; text-indent: 0px; text-transform: none; widows: 2; word-spacing: 0px; -webkit-text-stroke-width: 0px; white-space: nowrap; background-color: rgb(255, 255, 255); text-decoration-thickness: initial; text-decoration-style: initial; text-decoration-color: initial; display: inline !important; float: none;&quot;&gt;Delete comment&lt;/span&gt;" style="text;whiteSpace=wrap;html=1;" parent="1" vertex="1">
          <mxGeometry x="-559" y="110" width="150" height="40" as="geometry" />
        </mxCell>
        <mxCell id="niMMZWb-5YMJ8XlI0gKg-74" value="" style="group" parent="1" vertex="1" connectable="0">
          <mxGeometry x="-408" y="125" width="165" height="40" as="geometry" />
        </mxCell>
        <mxCell id="niMMZWb-5YMJ8XlI0gKg-69" value="" style="html=1;verticalAlign=bottom;endArrow=block;edgeStyle=elbowEdgeStyle;elbow=horizontal;curved=0;rounded=0;fontStyle=4" parent="niMMZWb-5YMJ8XlI0gKg-74" edge="1">
          <mxGeometry relative="1" as="geometry">
            <mxPoint y="25" as="sourcePoint" />
            <Array as="points">
              <mxPoint x="154" y="27" />
            </Array>
            <mxPoint x="165" y="25" as="targetPoint" />
            <mxPoint as="offset" />
          </mxGeometry>
        </mxCell>
        <mxCell id="niMMZWb-5YMJ8XlI0gKg-70" value="&lt;span style=&quot;color: rgb(0, 0, 0); font-family: Helvetica; font-size: 11px; font-style: normal; font-variant-ligatures: normal; font-variant-caps: normal; font-weight: 400; letter-spacing: normal; orphans: 2; text-align: left; text-indent: 0px; text-transform: none; widows: 2; word-spacing: 0px; -webkit-text-stroke-width: 0px; white-space: normal; background-color: rgb(251, 251, 251); text-decoration-thickness: initial; text-decoration-style: initial; text-decoration-color: initial; display: inline !important; float: none;&quot;&gt;Send DELETE request&lt;/span&gt;" style="text;whiteSpace=wrap;html=1;" parent="niMMZWb-5YMJ8XlI0gKg-74" vertex="1">
          <mxGeometry x="28" width="130" height="40" as="geometry" />
        </mxCell>
        <mxCell id="niMMZWb-5YMJ8XlI0gKg-75" value="" style="group" parent="1" vertex="1" connectable="0">
          <mxGeometry x="-230" y="135" width="165" height="40" as="geometry" />
        </mxCell>
        <mxCell id="niMMZWb-5YMJ8XlI0gKg-76" value="" style="html=1;verticalAlign=bottom;endArrow=block;edgeStyle=elbowEdgeStyle;elbow=horizontal;curved=0;rounded=0;fontStyle=4" parent="niMMZWb-5YMJ8XlI0gKg-75" edge="1">
          <mxGeometry relative="1" as="geometry">
            <mxPoint y="25" as="sourcePoint" />
            <Array as="points">
              <mxPoint x="149" y="27" />
            </Array>
            <mxPoint x="204.5" y="25" as="targetPoint" />
            <mxPoint as="offset" />
          </mxGeometry>
        </mxCell>
        <mxCell id="niMMZWb-5YMJ8XlI0gKg-77" value="&lt;span style=&quot;color: rgb(0, 0, 0); font-family: Helvetica; font-size: 11px; font-style: normal; font-variant-ligatures: normal; font-variant-caps: normal; font-weight: 400; letter-spacing: normal; orphans: 2; text-align: left; text-indent: 0px; text-transform: none; widows: 2; word-spacing: 0px; -webkit-text-stroke-width: 0px; white-space: normal; background-color: rgb(251, 251, 251); text-decoration-thickness: initial; text-decoration-style: initial; text-decoration-color: initial; display: inline !important; float: none;&quot;&gt;remove&lt;/span&gt;" style="text;whiteSpace=wrap;html=1;" parent="niMMZWb-5YMJ8XlI0gKg-75" vertex="1">
          <mxGeometry x="74" width="32" height="40" as="geometry" />
        </mxCell>
        <mxCell id="niMMZWb-5YMJ8XlI0gKg-82" value="" style="html=1;verticalAlign=bottom;endArrow=block;edgeStyle=elbowEdgeStyle;elbow=horizontal;curved=0;rounded=0;fontStyle=4;entryX=0.5;entryY=0.093;entryDx=0;entryDy=0;entryPerimeter=0;" parent="1" edge="1">
          <mxGeometry relative="1" as="geometry">
            <mxPoint x="-14" y="182" as="sourcePoint" />
            <Array as="points">
              <mxPoint x="134" y="184" />
            </Array>
            <mxPoint x="190" y="182.014" as="targetPoint" />
            <mxPoint as="offset" />
          </mxGeometry>
        </mxCell>
        <mxCell id="niMMZWb-5YMJ8XlI0gKg-83" value="Find comment by ID" style="text;whiteSpace=wrap;html=1;fontSize=11;" parent="1" vertex="1">
          <mxGeometry x="16" y="160" width="152" height="40" as="geometry" />
        </mxCell>
        <mxCell id="niMMZWb-5YMJ8XlI0gKg-95" value="" style="group" parent="1" vertex="1" connectable="0">
          <mxGeometry x="-17" y="210.00433522542318" width="176.0046946207683" height="36" as="geometry" />
        </mxCell>
        <mxCell id="niMMZWb-5YMJ8XlI0gKg-96" value="" style="html=1;verticalAlign=bottom;endArrow=block;dashed=1;endSize=8;edgeStyle=elbowEdgeStyle;elbow=vertical;curved=0;rounded=0;endFill=1;fontStyle=4;" parent="niMMZWb-5YMJ8XlI0gKg-95" edge="1">
          <mxGeometry x="-0.0945" relative="1" as="geometry">
            <mxPoint y="24.265664774576805" as="targetPoint" />
            <Array as="points" />
            <mxPoint x="205" y="23.995664774576824" as="sourcePoint" />
            <mxPoint as="offset" />
          </mxGeometry>
        </mxCell>
        <mxCell id="niMMZWb-5YMJ8XlI0gKg-97" value="&lt;span style=&quot;color: rgb(0, 0, 0); font-family: Helvetica; font-size: 10px; font-style: normal; font-variant-ligatures: normal; font-variant-caps: normal; font-weight: 400; letter-spacing: normal; orphans: 2; text-align: center; text-indent: 0px; text-transform: none; widows: 2; word-spacing: 0px; -webkit-text-stroke-width: 0px; white-space: nowrap; background-color: rgb(255, 255, 255); text-decoration-thickness: initial; text-decoration-style: initial; text-decoration-color: initial; display: inline !important; float: none;&quot;&gt;Return nothing&lt;/span&gt;" style="text;whiteSpace=wrap;html=1;container=0;" parent="niMMZWb-5YMJ8XlI0gKg-95" vertex="1">
          <mxGeometry x="55.004694620768305" width="121" height="36" as="geometry" />
        </mxCell>
        <mxCell id="niMMZWb-5YMJ8XlI0gKg-98" value="&lt;font style=&quot;font-size: 12px;&quot;&gt;Comment not found&lt;/font&gt;" style="shape=umlFrame;whiteSpace=wrap;html=1;pointerEvents=0;width=153;height=16;" parent="1" vertex="1">
          <mxGeometry x="-642" y="210" width="870" height="105" as="geometry" />
        </mxCell>
        <mxCell id="niMMZWb-5YMJ8XlI0gKg-99" value="&lt;span style=&quot;color: rgb(0, 0, 0); font-family: Helvetica; font-size: 10px; font-style: normal; font-variant-ligatures: normal; font-variant-caps: normal; font-weight: 400; letter-spacing: normal; orphans: 2; text-align: center; text-indent: 0px; text-transform: none; widows: 2; word-spacing: 0px; -webkit-text-stroke-width: 0px; white-space: nowrap; background-color: rgb(255, 255, 255); text-decoration-thickness: initial; text-decoration-style: initial; text-decoration-color: initial; display: inline !important; float: none;&quot;&gt;Return not found message&lt;/span&gt;" style="text;whiteSpace=wrap;html=1;container=0;" parent="1" vertex="1">
          <mxGeometry x="-176.9953053792317" y="220.00433522542318" width="121" height="36" as="geometry" />
        </mxCell>
        <mxCell id="niMMZWb-5YMJ8XlI0gKg-93" value="" style="html=1;verticalAlign=bottom;endArrow=block;dashed=1;endSize=8;edgeStyle=elbowEdgeStyle;elbow=vertical;curved=0;rounded=0;endFill=1;fontStyle=4;" parent="1" edge="1">
          <mxGeometry x="-0.0945" relative="1" as="geometry">
            <mxPoint x="-231" y="245.40999999999997" as="targetPoint" />
            <Array as="points" />
            <mxPoint x="-26" y="245.14" as="sourcePoint" />
            <mxPoint as="offset" />
          </mxGeometry>
        </mxCell>
        <mxCell id="niMMZWb-5YMJ8XlI0gKg-104" value="&lt;font style=&quot;font-size: 12px;&quot;&gt;Unauthorized&lt;/font&gt;" style="shape=umlFrame;whiteSpace=wrap;html=1;pointerEvents=0;width=90;height=18;" parent="1" vertex="1">
          <mxGeometry x="-640" y="332.5" width="870" height="105" as="geometry" />
        </mxCell>
        <mxCell id="niMMZWb-5YMJ8XlI0gKg-105" value="" style="group" parent="1" vertex="1" connectable="0">
          <mxGeometry x="-15" y="340.0043352254232" width="176.0046946207683" height="36" as="geometry" />
        </mxCell>
        <mxCell id="niMMZWb-5YMJ8XlI0gKg-106" value="" style="html=1;verticalAlign=bottom;endArrow=block;dashed=1;endSize=8;edgeStyle=elbowEdgeStyle;elbow=vertical;curved=0;rounded=0;endFill=1;fontStyle=4;" parent="niMMZWb-5YMJ8XlI0gKg-105" edge="1">
          <mxGeometry x="-0.0945" relative="1" as="geometry">
            <mxPoint y="24.265664774576805" as="targetPoint" />
            <Array as="points" />
            <mxPoint x="205" y="23.995664774576824" as="sourcePoint" />
            <mxPoint as="offset" />
          </mxGeometry>
        </mxCell>
        <mxCell id="niMMZWb-5YMJ8XlI0gKg-107" value="&lt;span style=&quot;color: rgb(0, 0, 0); font-family: Helvetica; font-size: 10px; font-style: normal; font-variant-ligatures: normal; font-variant-caps: normal; font-weight: 400; letter-spacing: normal; orphans: 2; text-align: center; text-indent: 0px; text-transform: none; widows: 2; word-spacing: 0px; -webkit-text-stroke-width: 0px; white-space: nowrap; background-color: rgb(255, 255, 255); text-decoration-thickness: initial; text-decoration-style: initial; text-decoration-color: initial; display: inline !important; float: none;&quot;&gt;Return 401&lt;/span&gt;" style="text;whiteSpace=wrap;html=1;container=0;" parent="niMMZWb-5YMJ8XlI0gKg-105" vertex="1">
          <mxGeometry x="55.004694620768305" width="121" height="36" as="geometry" />
        </mxCell>
        <mxCell id="niMMZWb-5YMJ8XlI0gKg-108" value="" style="group" parent="1" vertex="1" connectable="0">
          <mxGeometry x="-230" y="360.0043352254232" width="176.0046946207683" height="36" as="geometry" />
        </mxCell>
        <mxCell id="niMMZWb-5YMJ8XlI0gKg-109" value="" style="html=1;verticalAlign=bottom;endArrow=block;dashed=1;endSize=8;edgeStyle=elbowEdgeStyle;elbow=vertical;curved=0;rounded=0;endFill=1;fontStyle=4;" parent="niMMZWb-5YMJ8XlI0gKg-108" edge="1">
          <mxGeometry x="-0.0945" relative="1" as="geometry">
            <mxPoint y="24.265664774576805" as="targetPoint" />
            <Array as="points" />
            <mxPoint x="205" y="23.995664774576824" as="sourcePoint" />
            <mxPoint as="offset" />
          </mxGeometry>
        </mxCell>
        <mxCell id="niMMZWb-5YMJ8XlI0gKg-110" value="&lt;span style=&quot;color: rgb(0, 0, 0); font-family: Helvetica; font-size: 10px; font-style: normal; font-variant-ligatures: normal; font-variant-caps: normal; font-weight: 400; letter-spacing: normal; orphans: 2; text-align: center; text-indent: 0px; text-transform: none; widows: 2; word-spacing: 0px; -webkit-text-stroke-width: 0px; white-space: nowrap; background-color: rgb(255, 255, 255); text-decoration-thickness: initial; text-decoration-style: initial; text-decoration-color: initial; display: inline !important; float: none;&quot;&gt;Return 401&lt;/span&gt;" style="text;whiteSpace=wrap;html=1;container=0;" parent="niMMZWb-5YMJ8XlI0gKg-108" vertex="1">
          <mxGeometry x="55.004694620768305" width="121" height="36" as="geometry" />
        </mxCell>
        <mxCell id="niMMZWb-5YMJ8XlI0gKg-113" value="" style="html=1;verticalAlign=bottom;endArrow=block;dashed=1;endSize=8;edgeStyle=elbowEdgeStyle;elbow=vertical;curved=0;rounded=0;endFill=1;fontStyle=4;" parent="1" edge="1">
          <mxGeometry x="-0.0945" relative="1" as="geometry">
            <mxPoint x="-410" y="399" as="targetPoint" />
            <Array as="points" />
            <mxPoint x="-241" y="399" as="sourcePoint" />
            <mxPoint as="offset" />
          </mxGeometry>
        </mxCell>
        <mxCell id="niMMZWb-5YMJ8XlI0gKg-129" value="" style="html=1;verticalAlign=bottom;endArrow=block;dashed=1;endSize=8;edgeStyle=elbowEdgeStyle;elbow=vertical;curved=0;rounded=0;endFill=1;fontStyle=4;exitX=1;exitY=0.75;exitDx=0;exitDy=0;" parent="1" source="niMMZWb-5YMJ8XlI0gKg-130" target="niMMZWb-5YMJ8XlI0gKg-61" edge="1">
          <mxGeometry x="-0.0945" relative="1" as="geometry">
            <mxPoint x="-584" y="404.27" as="targetPoint" />
            <Array as="points" />
            <mxPoint x="-528.9953053792317" y="404.5" as="sourcePoint" />
            <mxPoint as="offset" />
          </mxGeometry>
        </mxCell>
        <mxCell id="niMMZWb-5YMJ8XlI0gKg-149" value="" style="group" parent="1" vertex="1" connectable="0">
          <mxGeometry x="-230" y="490.0043352254232" width="176.0046946207683" height="36" as="geometry" />
        </mxCell>
        <mxCell id="niMMZWb-5YMJ8XlI0gKg-150" value="" style="html=1;verticalAlign=bottom;endArrow=block;dashed=1;endSize=8;edgeStyle=elbowEdgeStyle;elbow=vertical;curved=0;rounded=0;endFill=1;fontStyle=4;" parent="niMMZWb-5YMJ8XlI0gKg-149" edge="1">
          <mxGeometry x="-0.0945" relative="1" as="geometry">
            <mxPoint y="24.265664774576805" as="targetPoint" />
            <Array as="points" />
            <mxPoint x="205" y="23.995664774576824" as="sourcePoint" />
            <mxPoint as="offset" />
          </mxGeometry>
        </mxCell>
        <mxCell id="niMMZWb-5YMJ8XlI0gKg-151" value="&lt;div style=&quot;text-align: center;&quot;&gt;&lt;span style=&quot;font-size: 10px; text-wrap: nowrap; background-color: rgb(255, 255, 255);&quot;&gt;Return result&lt;/span&gt;&lt;/div&gt;" style="text;whiteSpace=wrap;html=1;container=0;" parent="niMMZWb-5YMJ8XlI0gKg-149" vertex="1">
          <mxGeometry x="55.004694620768305" width="121" height="36" as="geometry" />
        </mxCell>
        <mxCell id="niMMZWb-5YMJ8XlI0gKg-85" value="React App" style="shape=umlLifeline;perimeter=lifelinePerimeter;whiteSpace=wrap;html=1;container=0;dropTarget=0;collapsible=0;recursiveResize=0;outlineConnect=0;portConstraint=eastwest;newEdgeStyle={&quot;edgeStyle&quot;:&quot;elbowEdgeStyle&quot;,&quot;elbow&quot;:&quot;vertical&quot;,&quot;curved&quot;:0,&quot;rounded&quot;:0};fontStyle=4;size=40;" parent="1" vertex="1">
          <mxGeometry x="-464" y="53" width="100" height="666" as="geometry" />
        </mxCell>
        <mxCell id="niMMZWb-5YMJ8XlI0gKg-87" value="" style="html=1;points=[];perimeter=orthogonalPerimeter;outlineConnect=0;targetShapes=umlLifeline;portConstraint=eastwest;newEdgeStyle={&quot;edgeStyle&quot;:&quot;elbowEdgeStyle&quot;,&quot;elbow&quot;:&quot;vertical&quot;,&quot;curved&quot;:0,&quot;rounded&quot;:0};fontStyle=4;container=0;" parent="1" vertex="1">
          <mxGeometry x="-419" y="127" width="10" height="430" as="geometry" />
        </mxCell>
        <mxCell id="niMMZWb-5YMJ8XlI0gKg-88" value="" style="html=1;verticalAlign=bottom;endArrow=block;edgeStyle=elbowEdgeStyle;elbow=horizontal;curved=0;rounded=0;fontStyle=4" parent="1" edge="1">
          <mxGeometry relative="1" as="geometry">
            <mxPoint x="-584" y="132" as="sourcePoint" />
            <Array as="points">
              <mxPoint x="-471.5" y="132" />
            </Array>
            <mxPoint x="-419" y="132" as="targetPoint" />
            <mxPoint as="offset" />
          </mxGeometry>
        </mxCell>
        <mxCell id="niMMZWb-5YMJ8XlI0gKg-90" value="" style="html=1;verticalAlign=bottom;endArrow=block;dashed=1;endSize=8;edgeStyle=elbowEdgeStyle;elbow=vertical;curved=0;rounded=0;endFill=1;fontStyle=4;" parent="1" target="niMMZWb-5YMJ8XlI0gKg-87" edge="1">
          <mxGeometry x="-0.0945" relative="1" as="geometry">
            <mxPoint x="-445" y="258.27" as="targetPoint" />
            <Array as="points" />
            <mxPoint x="-240" y="258" as="sourcePoint" />
            <mxPoint as="offset" />
          </mxGeometry>
        </mxCell>
        <mxCell id="niMMZWb-5YMJ8XlI0gKg-91" value="&lt;span style=&quot;font-size: 10px; text-align: center; text-wrap: nowrap; background-color: rgb(255, 255, 255);&quot;&gt;Return not found message&lt;/span&gt;" style="text;whiteSpace=wrap;html=1;container=0;" parent="1" vertex="1">
          <mxGeometry x="-389.9953053792317" y="234.00433522542318" width="121" height="36" as="geometry" />
        </mxCell>
        <mxCell id="niMMZWb-5YMJ8XlI0gKg-89" value="" style="html=1;verticalAlign=bottom;endArrow=block;dashed=1;endSize=8;edgeStyle=elbowEdgeStyle;elbow=vertical;curved=0;rounded=0;endFill=1;fontStyle=4;" parent="1" edge="1">
          <mxGeometry x="-0.0945" relative="1" as="geometry">
            <mxPoint x="-584" y="274" as="targetPoint" />
            <Array as="points" />
            <mxPoint x="-418" y="274" as="sourcePoint" />
            <mxPoint as="offset" />
          </mxGeometry>
        </mxCell>
        <mxCell id="niMMZWb-5YMJ8XlI0gKg-100" value="&lt;span style=&quot;color: rgb(0, 0, 0); font-family: Helvetica; font-size: 10px; font-style: normal; font-variant-ligatures: normal; font-variant-caps: normal; font-weight: 400; letter-spacing: normal; orphans: 2; text-align: center; text-indent: 0px; text-transform: none; widows: 2; word-spacing: 0px; -webkit-text-stroke-width: 0px; white-space: nowrap; background-color: rgb(255, 255, 255); text-decoration-thickness: initial; text-decoration-style: initial; text-decoration-color: initial; display: inline !important; float: none;&quot;&gt;Show not found message&lt;/span&gt;" style="text;whiteSpace=wrap;html=1;" parent="1" vertex="1">
          <mxGeometry x="-554" y="254" width="150" height="40" as="geometry" />
        </mxCell>
        <mxCell id="niMMZWb-5YMJ8XlI0gKg-114" value="&lt;span style=&quot;color: rgb(0, 0, 0); font-family: Helvetica; font-size: 10px; font-style: normal; font-variant-ligatures: normal; font-variant-caps: normal; font-weight: 400; letter-spacing: normal; orphans: 2; text-align: center; text-indent: 0px; text-transform: none; widows: 2; word-spacing: 0px; -webkit-text-stroke-width: 0px; white-space: nowrap; background-color: rgb(255, 255, 255); text-decoration-thickness: initial; text-decoration-style: initial; text-decoration-color: initial; display: inline !important; float: none;&quot;&gt;Return Unauthorized message&lt;/span&gt;" style="text;whiteSpace=wrap;html=1;" parent="1" vertex="1">
          <mxGeometry x="-392" y="377" width="80" height="40" as="geometry" />
        </mxCell>
        <mxCell id="niMMZWb-5YMJ8XlI0gKg-128" value="" style="group" parent="1" vertex="1" connectable="0">
          <mxGeometry x="-595" y="381.0043352254232" width="176.0046946207683" height="36" as="geometry" />
        </mxCell>
        <mxCell id="niMMZWb-5YMJ8XlI0gKg-130" value="&lt;span style=&quot;color: rgb(0, 0, 0); font-family: Helvetica; font-size: 10px; font-style: normal; font-variant-ligatures: normal; font-variant-caps: normal; font-weight: 400; letter-spacing: normal; orphans: 2; text-align: center; text-indent: 0px; text-transform: none; widows: 2; word-spacing: 0px; -webkit-text-stroke-width: 0px; white-space: nowrap; background-color: rgb(255, 255, 255); text-decoration-thickness: initial; text-decoration-style: initial; text-decoration-color: initial; display: inline !important; float: none;&quot;&gt;Show&amp;nbsp;&lt;/span&gt;&lt;span style=&quot;font-size: 10px; text-align: center; text-wrap: nowrap; background-color: rgb(255, 255, 255);&quot;&gt;Unauthorized message&lt;/span&gt;" style="text;whiteSpace=wrap;html=1;container=0;" parent="niMMZWb-5YMJ8XlI0gKg-128" vertex="1">
          <mxGeometry x="30" width="146" height="36" as="geometry" />
        </mxCell>
        <mxCell id="niMMZWb-5YMJ8XlI0gKg-145" value="Success" style="shape=umlFrame;whiteSpace=wrap;html=1;pointerEvents=0;width=90;height=18;" parent="1" vertex="1">
          <mxGeometry x="-640" y="461" width="880" height="105" as="geometry" />
        </mxCell>
        <mxCell id="niMMZWb-5YMJ8XlI0gKg-146" value="" style="group" parent="1" vertex="1" connectable="0">
          <mxGeometry x="-10" y="481.0043352254232" width="176.0046946207683" height="36" as="geometry" />
        </mxCell>
        <mxCell id="niMMZWb-5YMJ8XlI0gKg-147" value="" style="html=1;verticalAlign=bottom;endArrow=block;dashed=1;endSize=8;edgeStyle=elbowEdgeStyle;elbow=vertical;curved=0;rounded=0;endFill=1;fontStyle=4;" parent="niMMZWb-5YMJ8XlI0gKg-146" edge="1">
          <mxGeometry x="-0.0945" relative="1" as="geometry">
            <mxPoint x="-5" y="24.265664774576805" as="targetPoint" />
            <Array as="points" />
            <mxPoint x="200" y="23.995664774576824" as="sourcePoint" />
            <mxPoint as="offset" />
          </mxGeometry>
        </mxCell>
        <mxCell id="niMMZWb-5YMJ8XlI0gKg-148" value="&lt;span style=&quot;color: rgb(0, 0, 0); font-family: Helvetica; font-size: 10px; font-style: normal; font-variant-ligatures: normal; font-variant-caps: normal; font-weight: 400; letter-spacing: normal; orphans: 2; text-align: center; text-indent: 0px; text-transform: none; widows: 2; word-spacing: 0px; -webkit-text-stroke-width: 0px; white-space: nowrap; background-color: rgb(255, 255, 255); text-decoration-thickness: initial; text-decoration-style: initial; text-decoration-color: initial; display: inline !important; float: none;&quot;&gt;Return comments&lt;/span&gt;" style="text;whiteSpace=wrap;html=1;container=0;" parent="niMMZWb-5YMJ8XlI0gKg-146" vertex="1">
          <mxGeometry x="55.004694620768305" width="121" height="36" as="geometry" />
        </mxCell>
        <mxCell id="niMMZWb-5YMJ8XlI0gKg-51" value="" style="group" parent="1" vertex="1" connectable="0">
          <mxGeometry x="-409" y="495.5" width="172.5" height="36" as="geometry" />
        </mxCell>
        <mxCell id="niMMZWb-5YMJ8XlI0gKg-52" value="" style="html=1;verticalAlign=bottom;endArrow=block;dashed=1;endSize=8;edgeStyle=elbowEdgeStyle;elbow=vertical;curved=0;rounded=0;endFill=1;fontStyle=4;" parent="niMMZWb-5YMJ8XlI0gKg-51" source="niMMZWb-5YMJ8XlI0gKg-57" edge="1">
          <mxGeometry x="-0.0945" relative="1" as="geometry">
            <mxPoint y="24.265664774576805" as="targetPoint" />
            <Array as="points" />
            <mxPoint x="200.91793617320522" y="23.995664774576824" as="sourcePoint" />
            <mxPoint as="offset" />
          </mxGeometry>
        </mxCell>
        <mxCell id="niMMZWb-5YMJ8XlI0gKg-53" value="&lt;span style=&quot;color: rgb(0, 0, 0); font-family: Helvetica; font-size: 10px; font-style: normal; font-variant-ligatures: normal; font-variant-caps: normal; font-weight: 400; letter-spacing: normal; orphans: 2; text-align: center; text-indent: 0px; text-transform: none; widows: 2; word-spacing: 0px; -webkit-text-stroke-width: 0px; white-space: nowrap; background-color: rgb(255, 255, 255); text-decoration-thickness: initial; text-decoration-style: initial; text-decoration-color: initial; display: inline !important; float: none;&quot;&gt;Return success mesage&lt;/span&gt;" style="text;whiteSpace=wrap;html=1;container=0;" parent="niMMZWb-5YMJ8XlI0gKg-51" vertex="1">
          <mxGeometry x="53.90941328313254" width="118.59058671686746" height="36" as="geometry" />
        </mxCell>
        <mxCell id="niMMZWb-5YMJ8XlI0gKg-194" value="" style="html=1;verticalAlign=bottom;endArrow=block;dashed=1;endSize=8;edgeStyle=elbowEdgeStyle;elbow=vertical;curved=0;rounded=0;endFill=1;fontStyle=4;exitX=1;exitY=0.75;exitDx=0;exitDy=0;" parent="1" source="niMMZWb-5YMJ8XlI0gKg-195" edge="1">
          <mxGeometry x="-0.0945" relative="1" as="geometry">
            <mxPoint x="-585" y="541" as="targetPoint" />
            <Array as="points" />
            <mxPoint x="-528.9953053792317" y="537.5" as="sourcePoint" />
            <mxPoint as="offset" />
          </mxGeometry>
        </mxCell>
        <mxCell id="niMMZWb-5YMJ8XlI0gKg-195" value="&lt;span style=&quot;color: rgb(0, 0, 0); font-family: Helvetica; font-size: 10px; font-style: normal; font-variant-ligatures: normal; font-variant-caps: normal; font-weight: 400; letter-spacing: normal; orphans: 2; text-align: center; text-indent: 0px; text-transform: none; widows: 2; word-spacing: 0px; -webkit-text-stroke-width: 0px; white-space: nowrap; background-color: rgb(255, 255, 255); text-decoration-thickness: initial; text-decoration-style: initial; text-decoration-color: initial; display: inline !important; float: none;&quot;&gt;Show&amp;nbsp;&lt;/span&gt;&lt;span style=&quot;font-size: 10px; text-align: center; text-wrap: nowrap; background-color: rgb(255, 255, 255);&quot;&gt;Success message&lt;/span&gt;" style="text;whiteSpace=wrap;html=1;container=0;" parent="1" vertex="1">
          <mxGeometry x="-565" y="514.0043352254231" width="146" height="36" as="geometry" />
        </mxCell>
      </root>
    </mxGraphModel>
  </diagram>
</mxfile>
